<?xml version="1.0" encoding="UTF-8"?>
<svg width="500px" height="500px" viewBox="0 0 500 500" version="1.1" xmlns="http://www.w3.org/2000/svg" xmlns:xlink="http://www.w3.org/1999/xlink">
    <!-- Generator: Sketch 48.2 (47327) - http://www.bohemiancoding.com/sketch -->
    <title>quaver</title>
    <desc>Created with Sketch.</desc>
    <defs></defs>
    <g id="Desktop-Mac" stroke="none" stroke-width="1" fill="none" fill-rule="evenodd" transform="translate(-343.000000, -245.000000)">
        <g id="quaver" transform="translate(343.000000, 245.000000)">
            <rect id="Canvas" fill="#306BF5" x="0" y="0" width="500" height="500"></rect>
            <path d="M323.008781,140.999998 L204.398984,164.517458 C201.480079,165.092083 199.394068,167.678046 199.450092,170.652447 L199.450092,212.574876 L199.450092,317.360497 C189.479173,312.086594 177.807316,311.040253 167.057347,314.456602 C158.028893,316.871773 149.996845,322.083298 144.112486,329.344177 C138.852619,335.50023 136.901447,343.8232 138.877295,351.675539 C142.14929,363.168419 154.623768,370.244107 169.225044,370.244107 C173.708294,370.237101 178.168587,369.60385 182.476621,368.36271 C197.405095,364.272717 208.897976,353.188836 211.106572,341.205157 C211.546642,338.928132 211.752216,336.612005 211.720071,334.293068 L211.720071,217.564667 L318.05989,195.560505 L318.05989,292.820539 C308.088971,287.546635 296.417114,286.500295 285.667145,289.916644 C265.871579,295.560835 253.2744,312.288906 257.527993,327.135581 C260.799987,338.628461 273.274466,345.704149 287.875741,345.704149 C292.358991,345.697143 296.819285,345.063891 301.127319,343.822752 C316.055793,339.732759 327.548674,328.648878 329.75727,316.665199 C330.113551,314.790491 330.305148,312.88821 330.329869,310.980108 C330.329869,310.980108 330.329869,310.980108 330.329869,310.734709 L330.329869,188.034918 L330.329869,147.134988 C330.364941,145.279858 329.558548,143.508518 328.136405,142.316778 C326.714261,141.125037 324.829171,140.640944 323.008781,140.999998 Z" id="Shape" fill="#FFFFFF" fill-rule="nonzero"></path>
        </g>
    </g>
</svg>